<svg width="30" height="37" viewBox="0 0 30 37" fill="none" xmlns="http://www.w3.org/2000/svg">
<path d="M29 15.3182C29 26.4546 15 36 15 36C15 36 1 26.4546 1 15.3182C1 11.5208 2.475 7.87886 5.10051 5.19369C7.72601 2.50852 11.287 1 15 1C18.713 1 22.274 2.50852 24.8995 5.19369C27.525 7.87886 29 11.5208 29 15.3182Z" stroke="#ED8E00" stroke-width="1.66667" stroke-linecap="round" stroke-linejoin="round"/>
<path d="M15 20.0908C17.5773 20.0908 19.6666 17.9542 19.6666 15.3182C19.6666 12.6823 17.5773 10.5454 15 10.5454C12.4227 10.5454 10.3333 12.6823 10.3333 15.3182C10.3333 17.9542 12.4227 20.0908 15 20.0908Z" stroke="#ED8E00" stroke-width="1.66667" stroke-linecap="round" stroke-linejoin="round"/>
</svg>
