<svg width="264" height="49" viewBox="0 0 264 49" fill="none" xmlns="http://www.w3.org/2000/svg">
<path d="M2 36.6213C10.6658 35.8991 17.9527 31.3199 26 28.399C38.46 23.8765 52.3862 21.4794 60 9.73237C61.8348 6.90158 68.0263 -2.72798 62 4.84348C52.8294 16.3656 42.6556 27.0052 31.9444 37.1213C28.3191 40.5452 24.6577 43.8937 20.7222 46.9546C20.1044 47.4351 21.7796 45.3318 22.1667 45.0657C33.7915 37.0737 46.8545 30.694 59.4444 24.399C64.25 21.9963 63.6351 24.9035 67.5 26.6213C74.9566 29.9353 85.7055 26.8786 93.5556 26.6213C98.699 26.4526 104.344 25.1991 109.444 24.399C115.821 23.3988 122.233 23.5894 128.667 22.8435C131.136 22.5571 142.444 21.4341 143 23.8435C143.402 25.5871 142.786 27.6173 143 29.399C143.207 31.1218 149.362 29.3607 150.5 29.0657C157.036 27.3712 160.372 26.2924 167.5 27.1213C176.37 28.1527 183.819 28.0241 192.667 27.1213C206.269 25.7333 220.275 26.6213 233.944 26.6213C243.336 26.6213 252.64 25.6213 262 25.6213" stroke="#ED8E00" stroke-width="3" stroke-linecap="round"/>
</svg>
